<svg width="142" height="102" viewBox="0 0 142 102" fill="none" xmlns="http://www.w3.org/2000/svg">
<rect width="142" height="102" fill="#1E1E1E"/>
<path d="M0.66718 13.883C0.602588 21.2466 6.51953 27.2682 13.883 27.3328C21.2466 27.3974 27.2682 21.4805 27.3328 14.117C27.3974 6.75344 21.4805 0.731772 14.117 0.66718C6.75344 0.602588 0.731772 6.51953 0.66718 13.883ZM127.978 17.4999C129.359 17.512 130.488 16.4026 130.5 15.0219C130.512 13.6413 129.403 12.5122 128.022 12.5001L127.978 17.4999ZM13.9781 16.4999L127.978 17.4999L128.022 12.5001L14.0219 11.5001L13.9781 16.4999Z" fill="white"/>
<path d="M4 52H75" stroke="white" stroke-width="4" stroke-linecap="round"/>
<path d="M31 85.5C29.6193 85.5 28.5 86.6193 28.5 88C28.5 89.3807 29.6193 90.5 31 90.5V85.5ZM114.667 88C114.667 95.3638 120.636 101.333 128 101.333C135.364 101.333 141.333 95.3638 141.333 88C141.333 80.6362 135.364 74.6667 128 74.6667C120.636 74.6667 114.667 80.6362 114.667 88ZM31 90.5L128 90.5V85.5L31 85.5V90.5Z" fill="white"/>
</svg>
